<svg width="80" height="10" viewBox="0 0 80 10" fill="none" xmlns="http://www.w3.org/2000/svg">
<path d="M0.816 9H2.676V3.564L5.592 9H7.584V0.599999H5.724V6.036L2.808 0.599999H0.816V9ZM11.4623 9.156C12.2663 9.156 12.9863 8.76 13.2983 8.184V9H15.1223V3.216H13.2983V4.044C12.9863 3.456 12.3263 3.06 11.4863 3.06C9.80634 3.06 8.73834 4.38 8.73834 6.108C8.73834 7.848 9.73434 9.156 11.4623 9.156ZM11.9903 7.632C11.1383 7.632 10.6103 6.984 10.6103 6.108C10.6103 5.232 11.1383 4.596 11.9903 4.596C12.9023 4.596 13.3703 5.28 13.3703 6.108C13.3703 6.948 12.9023 7.632 11.9903 7.632ZM19.6826 7.572C19.2266 7.572 18.8786 7.44 18.8786 6.588V4.668H20.1866V3.216H18.8786V1.5H17.0426V3.216H16.1306V4.668H17.0426V6.972C17.0426 8.904 18.2306 9.096 19.0946 9.096C19.6226 9.096 20.0546 9.048 20.3186 9V7.536C20.1506 7.56 19.9106 7.572 19.6826 7.572ZM25.0773 3.06C24.2013 3.06 23.5413 3.408 23.2053 4.056V0.599999H21.3693V9H23.2053V5.976C23.2053 5.088 23.5893 4.608 24.3213 4.608C25.0653 4.608 25.3413 5.052 25.3413 6.024V9H27.1893V5.424C27.1893 3.852 26.4813 3.06 25.0773 3.06ZM30.9623 9.156C31.7663 9.156 32.4863 8.76 32.7983 8.184V9H34.6223V3.216H32.7983V4.044C32.4863 3.456 31.8263 3.06 30.9863 3.06C29.3063 3.06 28.2383 4.38 28.2383 6.108C28.2383 7.848 29.2343 9.156 30.9623 9.156ZM31.4903 7.632C30.6383 7.632 30.1103 6.984 30.1103 6.108C30.1103 5.232 30.6383 4.596 31.4903 4.596C32.4023 4.596 32.8703 5.28 32.8703 6.108C32.8703 6.948 32.4023 7.632 31.4903 7.632ZM36.1466 9H37.9826V5.976C37.9826 5.088 38.3666 4.608 39.0986 4.608C39.8426 4.608 40.1186 5.052 40.1186 6.024V9H41.9666V5.424C41.9666 3.852 41.2586 3.06 39.8546 3.06C38.9786 3.06 38.3186 3.408 37.9826 4.056V3.216H36.1466V9ZM46.4137 9H51.4777V7.272H48.3577V0.599999H46.4137V9ZM54.7983 9.156C55.6023 9.156 56.3223 8.76 56.6343 8.184V9H58.4583V3.216H56.6343V4.044C56.3223 3.456 55.6623 3.06 54.8223 3.06C53.1423 3.06 52.0743 4.38 52.0743 6.108C52.0743 7.848 53.0703 9.156 54.7983 9.156ZM55.3263 7.632C54.4743 7.632 53.9463 6.984 53.9463 6.108C53.9463 5.232 54.4743 4.596 55.3263 4.596C56.2383 4.596 56.7063 5.28 56.7063 6.108C56.7063 6.948 56.2383 7.632 55.3263 7.632ZM59.9826 9H61.8186V5.976C61.8186 5.088 62.2026 4.608 62.9346 4.608C63.6786 4.608 63.9546 5.052 63.9546 6.024V9H65.8026V5.424C65.8026 3.852 65.0946 3.06 63.6906 3.06C62.8146 3.06 62.1546 3.408 61.8186 4.056V3.216H59.9826V9ZM71.3996 0.599999V3.552H71.4116V4.044C71.0996 3.456 70.4396 3.06 69.5996 3.06C67.9196 3.06 66.8516 4.38 66.8516 6.108C66.8516 7.848 67.8476 9.156 69.5756 9.156C70.3796 9.156 71.0996 8.76 71.4116 8.184V9H73.2356V0.599999H71.3996ZM70.1036 7.632C69.2516 7.632 68.7236 6.984 68.7236 6.108C68.7236 5.232 69.2516 4.596 70.1036 4.596C71.0156 4.596 71.4836 5.28 71.4836 6.108C71.4836 6.948 71.0156 7.632 70.1036 7.632ZM77.0759 9.18C78.6599 9.18 79.6079 8.376 79.6079 7.188C79.6079 6.36 79.0319 5.82 78.1439 5.58L76.7759 5.208C76.4639 5.124 76.2839 4.956 76.2839 4.692C76.2839 4.404 76.5479 4.212 76.9439 4.212C77.4359 4.212 77.7359 4.44 77.7359 4.848H79.5479C79.5479 3.756 78.6599 3.048 76.9679 3.048C75.4439 3.048 74.4959 3.804 74.4959 4.884C74.4959 5.712 74.9879 6.312 75.9479 6.552L77.3639 6.912C77.6759 6.984 77.7839 7.176 77.7839 7.404C77.7839 7.74 77.5079 7.944 77.1119 7.944C76.5479 7.944 76.1639 7.656 76.1639 7.26H74.3399C74.3399 8.352 75.3839 9.18 77.0759 9.18Z" fill="#F3F0E1"/>
</svg>
